<svg width="289" height="27" viewBox="0 0 289 27" fill="none" xmlns="http://www.w3.org/2000/svg">
<path d="M0.976562 20C0.924479 20 0.898438 19.9674 0.898438 19.9023V19.4922C0.898438 19.4857 0.901693 19.4727 0.908203 19.4531C0.914714 19.4271 0.9375 19.4141 0.976562 19.4141C1.19792 19.4141 1.40299 19.3815 1.5918 19.3164C1.78711 19.2513 1.95638 19.1634 2.09961 19.0527C2.24284 18.9421 2.35677 18.8086 2.44141 18.6523C2.52604 18.4961 2.56836 18.3268 2.56836 18.1445V8.22266C2.56836 7.89714 2.53581 7.64323 2.4707 7.46094C2.4056 7.27214 2.30794 7.13216 2.17773 7.04102C2.05404 6.94336 1.89453 6.88477 1.69922 6.86523C1.51042 6.83919 1.28906 6.82617 1.03516 6.82617H0.595703C0.524089 6.82617 0.472005 6.78711 0.439453 6.70898C0.406901 6.62435 0.390625 6.55273 0.390625 6.49414C0.390625 6.46159 0.397135 6.41276 0.410156 6.34766C0.423177 6.28255 0.458984 6.24349 0.517578 6.23047C0.524089 6.23047 0.54362 6.23047 0.576172 6.23047C0.615234 6.23047 0.680339 6.23047 0.771484 6.23047C0.86263 6.22396 0.983073 6.2207 1.13281 6.2207C1.28906 6.21419 1.49089 6.20768 1.73828 6.20117C2.09635 6.19466 2.47721 6.1849 2.88086 6.17188C3.29102 6.15885 3.70443 6.14583 4.12109 6.13281C4.53776 6.11979 4.94792 6.11003 5.35156 6.10352C5.76172 6.09049 6.14583 6.08398 6.50391 6.08398H7.88086C8.40169 6.08398 8.90951 6.17188 9.4043 6.34766C9.89909 6.52344 10.3385 6.78385 10.7227 7.12891C11.1068 7.46745 11.416 7.89062 11.6504 8.39844C11.8848 8.90625 12.002 9.49219 12.002 10.1562C12.002 10.5729 11.9401 10.9733 11.8164 11.3574C11.6927 11.735 11.5234 12.0833 11.3086 12.4023C11.1003 12.7214 10.8561 13.0111 10.5762 13.2715C10.3027 13.5254 10.013 13.7402 9.70703 13.916C9.40755 14.0918 9.10156 14.2253 8.78906 14.3164C8.51562 14.388 8.25846 14.4238 8.01758 14.4238C7.97852 14.4238 7.94271 14.4238 7.91016 14.4238L5.57617 14.3066C5.56966 14.3066 5.54362 14.3066 5.49805 14.3066C5.45247 14.3066 5.41992 14.3132 5.40039 14.3262C5.38086 14.3392 5.36784 14.3522 5.36133 14.3652C5.35482 14.3783 5.35156 14.4043 5.35156 14.4434V18.1152C5.35156 18.3691 5.41992 18.5807 5.55664 18.75C5.69987 18.9128 5.88216 19.043 6.10352 19.1406C6.33138 19.2383 6.58529 19.3099 6.86523 19.3555C7.14518 19.3945 7.42188 19.4141 7.69531 19.4141C7.73438 19.4141 7.75716 19.4238 7.76367 19.4434C7.77018 19.4629 7.77344 19.4792 7.77344 19.4922V19.9219C7.77344 19.9349 7.76693 19.9512 7.75391 19.9707C7.7474 19.9902 7.72786 20 7.69531 20H0.976562ZM5.37109 13.2031C5.3776 13.2552 5.39062 13.304 5.41016 13.3496C5.4362 13.3887 5.48503 13.4115 5.55664 13.418C5.58268 13.418 5.62826 13.4212 5.69336 13.4277C5.76497 13.4342 5.84635 13.4408 5.9375 13.4473C6.02865 13.4538 6.1263 13.4603 6.23047 13.4668C6.34115 13.4733 6.44857 13.4766 6.55273 13.4766C6.98893 13.4766 7.36979 13.3887 7.69531 13.2129C8.02734 13.0371 8.30078 12.793 8.51562 12.4805C8.73698 12.1615 8.89974 11.7871 9.00391 11.3574C9.11458 10.9212 9.16992 10.4427 9.16992 9.92188C9.16992 8.84766 8.95508 8.0599 8.52539 7.55859C8.0957 7.05729 7.46419 6.80664 6.63086 6.80664C6.53971 6.80664 6.45508 6.8099 6.37695 6.81641C6.29883 6.81641 6.2207 6.81966 6.14258 6.82617C6.06445 6.82617 5.97982 6.82943 5.88867 6.83594C5.80404 6.83594 5.70638 6.83919 5.5957 6.8457C5.55664 6.8457 5.50456 6.85547 5.43945 6.875C5.38086 6.88802 5.35156 6.93034 5.35156 7.00195V12.9102L5.37109 13.2031ZM12.7832 19.502C12.7832 19.4954 12.7865 19.4824 12.793 19.4629C12.7995 19.4368 12.8223 19.4238 12.8613 19.4238H13.0762C13.3496 19.4043 13.6296 19.3945 13.916 19.3945C14.2025 19.388 14.4629 19.3522 14.6973 19.2871C14.9316 19.2155 15.1237 19.0951 15.2734 18.9258C15.4232 18.75 15.498 18.4798 15.498 18.1152V8.11523C15.498 7.86133 15.446 7.65625 15.3418 7.5C15.2376 7.33724 15.1009 7.20703 14.9316 7.10938C14.7624 7.01172 14.5703 6.9401 14.3555 6.89453C14.1406 6.84245 13.9225 6.80013 13.7012 6.76758H13.4961C13.4635 6.76758 13.4408 6.75781 13.4277 6.73828C13.4212 6.71875 13.418 6.70247 13.418 6.68945V6.30859C13.418 6.29557 13.4212 6.2793 13.4277 6.25977C13.4408 6.24023 13.4635 6.23047 13.4961 6.23047H23.2227C23.3398 6.23047 23.4245 6.25326 23.4766 6.29883C23.5286 6.33789 23.5612 6.42904 23.5742 6.57227L23.75 9.69727C23.75 9.72982 23.7207 9.75586 23.6621 9.77539C23.61 9.78841 23.5612 9.79492 23.5156 9.79492C23.4635 9.79492 23.4115 9.78841 23.3594 9.77539C23.3073 9.76237 23.2715 9.74284 23.252 9.7168C23.2064 9.65169 23.1738 9.55729 23.1543 9.43359C23.1348 9.30339 23.112 9.16016 23.0859 9.00391C23.0664 8.84766 23.0339 8.6849 22.9883 8.51562C22.9492 8.34635 22.8874 8.1901 22.8027 8.04688C22.7181 7.90365 22.6009 7.77995 22.4512 7.67578C22.3079 7.5651 22.1224 7.49023 21.8945 7.45117H18.4082C18.3236 7.45117 18.2812 7.49349 18.2812 7.57812V12.2363C18.2812 12.3014 18.3138 12.334 18.3789 12.334H21.1719C21.3346 12.334 21.4941 12.3145 21.6504 12.2754C21.8132 12.2298 21.9531 12.1517 22.0703 12.041C22.194 11.9303 22.2917 11.7773 22.3633 11.582C22.4414 11.3802 22.4805 11.123 22.4805 10.8105C22.4805 10.7585 22.5065 10.7324 22.5586 10.7324H22.9395C22.9915 10.7324 23.0176 10.7585 23.0176 10.8105V15.2832C23.0176 15.3158 23.0078 15.3385 22.9883 15.3516C22.9688 15.3581 22.9525 15.3613 22.9395 15.3613H22.5586C22.526 15.3613 22.5033 15.3516 22.4902 15.332C22.4837 15.3125 22.4805 15.2962 22.4805 15.2832C22.4805 14.9186 22.4414 14.6257 22.3633 14.4043C22.2917 14.1764 22.194 14.0007 22.0703 13.877C21.9466 13.7467 21.8034 13.6621 21.6406 13.623C21.4844 13.5775 21.3184 13.5547 21.1426 13.5547H18.3789C18.3138 13.5547 18.2812 13.5872 18.2812 13.6523V17.9199C18.2812 18.1087 18.3105 18.2617 18.3691 18.3789C18.4277 18.4896 18.5059 18.5742 18.6035 18.6328C18.7077 18.6914 18.8249 18.7305 18.9551 18.75C19.0853 18.7695 19.222 18.7793 19.3652 18.7793H22.0312C22.4089 18.7793 22.7246 18.6947 22.9785 18.5254C23.2324 18.3496 23.4375 18.138 23.5938 17.8906C23.75 17.6432 23.8639 17.3861 23.9355 17.1191C24.0137 16.8522 24.0625 16.6243 24.082 16.4355C24.0951 16.3509 24.1374 16.2858 24.209 16.2402C24.2806 16.1882 24.362 16.1621 24.4531 16.1621C24.4857 16.1621 24.5247 16.1751 24.5703 16.2012C24.6159 16.2272 24.6387 16.2565 24.6387 16.2891L24.3164 19.8633C24.3034 19.8958 24.2839 19.9284 24.2578 19.9609C24.2383 19.987 24.2122 20 24.1797 20H12.8613C12.8223 20 12.7995 19.9902 12.793 19.9707C12.7865 19.9447 12.7832 19.9284 12.7832 19.9219V19.7852V19.502ZM25.9375 19.4922C25.9375 19.4857 25.9408 19.4727 25.9473 19.4531C25.9538 19.4271 25.9766 19.4141 26.0156 19.4141C26.0547 19.4141 26.1165 19.4076 26.2012 19.3945C26.2858 19.3815 26.3737 19.3685 26.4648 19.3555C26.556 19.3424 26.6406 19.3294 26.7188 19.3164C26.7969 19.2969 26.8522 19.2839 26.8848 19.2773C27.2559 19.1927 27.513 19.056 27.6562 18.8672C27.806 18.6719 27.8809 18.431 27.8809 18.1445V8.22266C27.8809 7.89714 27.8125 7.63997 27.6758 7.45117C27.5391 7.26237 27.3796 7.1224 27.1973 7.03125C27.0215 6.93359 26.849 6.875 26.6797 6.85547C26.5169 6.82943 26.4062 6.81641 26.3477 6.81641H25.9766C25.944 6.81641 25.9212 6.80664 25.9082 6.78711C25.9017 6.76758 25.8984 6.7513 25.8984 6.73828V6.30859C25.8984 6.29557 25.9017 6.28255 25.9082 6.26953C25.9147 6.25 25.9375 6.23698 25.9766 6.23047C25.9831 6.23047 25.9961 6.23047 26.0156 6.23047C26.0417 6.23047 26.0905 6.23047 26.1621 6.23047C26.2337 6.22396 26.3379 6.2207 26.4746 6.2207C26.6113 6.21419 26.8034 6.20768 27.0508 6.20117C27.4089 6.19466 27.7897 6.1849 28.1934 6.17188C28.6035 6.15885 29.0169 6.14583 29.4336 6.13281C29.8503 6.11979 30.2604 6.11003 30.6641 6.10352C31.0742 6.09049 31.4583 6.08398 31.8164 6.08398H32.8027C33.3171 6.08398 33.8411 6.17188 34.375 6.34766C34.9089 6.52344 35.3906 6.78385 35.8203 7.12891C36.2565 7.46745 36.6113 7.89062 36.8848 8.39844C37.1647 8.90625 37.3047 9.49219 37.3047 10.1562C37.3047 10.5859 37.2461 10.9701 37.1289 11.3086C37.0117 11.6406 36.849 11.9368 36.6406 12.1973C36.4388 12.4512 36.1947 12.6758 35.9082 12.8711C35.6283 13.0664 35.3223 13.2389 34.9902 13.3887L37.9492 18.0762C38.2031 18.4798 38.4993 18.8477 38.8379 19.1797C39.1764 19.5052 39.5703 19.7331 40.0195 19.8633C40.0716 19.8763 40.1009 19.8958 40.1074 19.9219C40.1204 19.9414 40.127 19.9674 40.127 20C40.127 20.0977 40.1009 20.1628 40.0488 20.1953C39.9967 20.2279 39.9154 20.2441 39.8047 20.2441C39.5312 20.2441 39.2188 20.2246 38.8672 20.1855C38.5221 20.153 38.1738 20.0944 37.8223 20.0098C37.4707 19.9316 37.1354 19.8275 36.8164 19.6973C36.5039 19.5671 36.2402 19.4043 36.0254 19.209C35.8171 19.0267 35.6055 18.7956 35.3906 18.5156C35.1758 18.2357 34.9577 17.9362 34.7363 17.6172C34.5215 17.2917 34.3066 16.9564 34.0918 16.6113C33.8835 16.2598 33.6784 15.918 33.4766 15.5859C33.2812 15.2539 33.0924 14.9447 32.9102 14.6582C32.7279 14.3717 32.5618 14.1276 32.4121 13.9258L30.8887 13.8184C30.8822 13.8184 30.8561 13.8184 30.8105 13.8184C30.765 13.8184 30.7324 13.8249 30.7129 13.8379C30.6934 13.8509 30.6803 13.8639 30.6738 13.877C30.6673 13.89 30.6641 13.916 30.6641 13.9551V18.1152C30.6641 18.291 30.6868 18.444 30.7324 18.5742C30.778 18.7044 30.8529 18.8184 30.957 18.916C31.0677 19.0072 31.2077 19.082 31.377 19.1406C31.5527 19.1992 31.7643 19.2448 32.0117 19.2773C32.0508 19.2839 32.1061 19.2936 32.1777 19.3066C32.2559 19.3197 32.3372 19.3359 32.4219 19.3555C32.513 19.3685 32.6009 19.3815 32.6855 19.3945C32.7702 19.4076 32.8418 19.4141 32.9004 19.4141C32.9395 19.4141 32.9622 19.4238 32.9688 19.4434C32.9753 19.4629 32.9785 19.4792 32.9785 19.4922V19.9219C32.9785 19.9349 32.972 19.9512 32.959 19.9707C32.9525 19.9902 32.9329 20 32.9004 20H26.0156C25.9831 20 25.9603 19.9544 25.9473 19.8633C25.9408 19.7721 25.9375 19.6875 25.9375 19.6094V19.4922ZM30.6836 12.8418C30.6901 12.8939 30.7031 12.9427 30.7227 12.9883C30.7487 13.0273 30.7975 13.0501 30.8691 13.0566C30.9277 13.0632 31.0156 13.0762 31.1328 13.0957C31.25 13.1087 31.4128 13.1152 31.6211 13.1152C32.194 13.1152 32.666 13.0273 33.0371 12.8516C33.4082 12.6758 33.7012 12.4414 33.916 12.1484C34.1309 11.849 34.2773 11.5072 34.3555 11.123C34.4401 10.7389 34.4824 10.3385 34.4824 9.92188C34.4824 9.48568 34.4141 9.07227 34.2773 8.68164C34.1406 8.29102 33.9486 7.95247 33.7012 7.66602C33.4603 7.37956 33.1673 7.15169 32.8223 6.98242C32.4837 6.81315 32.1094 6.72852 31.6992 6.72852C31.6081 6.72852 31.5365 6.73177 31.4844 6.73828C31.4323 6.73828 31.3802 6.74154 31.3281 6.74805C31.2826 6.74805 31.2272 6.7513 31.1621 6.75781C31.1035 6.75781 31.0189 6.76107 30.9082 6.76758C30.8691 6.76758 30.8171 6.77734 30.752 6.79688C30.6934 6.8099 30.6641 6.85221 30.6641 6.92383V12.5488L30.6836 12.8418ZM41.2793 13.2031C41.2793 12.474 41.3704 11.7871 41.5527 11.1426C41.735 10.4915 41.9922 9.89258 42.3242 9.3457C42.6562 8.79883 43.0566 8.30729 43.5254 7.87109C43.9941 7.4349 44.5117 7.06706 45.0781 6.76758C45.651 6.46159 46.263 6.22721 46.9141 6.06445C47.5651 5.90169 48.2454 5.82031 48.9551 5.82031C49.554 5.82031 50.1302 5.87565 50.6836 5.98633C51.2435 6.09049 51.8197 6.21419 52.4121 6.35742C52.5098 6.38346 52.6107 6.41602 52.7148 6.45508C52.8255 6.49414 52.9264 6.5332 53.0176 6.57227C53.1152 6.60482 53.2031 6.63411 53.2812 6.66016C53.3594 6.6862 53.418 6.69922 53.457 6.69922C53.4701 6.69922 53.5124 6.6862 53.584 6.66016C53.6621 6.63411 53.7174 6.62109 53.75 6.62109H54.1992C54.2773 6.62109 54.3164 6.67643 54.3164 6.78711V9.9707C54.3164 10.0098 54.3001 10.0358 54.2676 10.0488C54.2415 10.0618 54.1797 10.0684 54.082 10.0684C54.0625 10.0684 54.0104 10.0684 53.9258 10.0684C53.8477 10.0618 53.7988 10.0423 53.7793 10.0098C53.7663 9.99023 53.7402 9.95117 53.7012 9.89258C53.6686 9.83398 53.6296 9.77539 53.584 9.7168C53.5449 9.65169 53.5059 9.5931 53.4668 9.54102C53.4342 9.48242 53.4147 9.44336 53.4082 9.42383C53.1608 8.93555 52.8906 8.52539 52.5977 8.19336C52.3047 7.85482 51.9792 7.58138 51.6211 7.37305C51.2695 7.16471 50.8854 7.01497 50.4688 6.92383C50.0521 6.82617 49.5996 6.77734 49.1113 6.77734C48.4928 6.77734 47.9427 6.84896 47.4609 6.99219C46.9857 7.13542 46.569 7.33724 46.2109 7.59766C45.8529 7.85807 45.5501 8.17057 45.3027 8.53516C45.0618 8.89974 44.8633 9.30013 44.707 9.73633C44.5573 10.166 44.4466 10.6283 44.375 11.123C44.3099 11.6113 44.2773 12.1159 44.2773 12.6367C44.2773 13.1901 44.3164 13.7402 44.3945 14.2871C44.4727 14.8275 44.5996 15.3451 44.7754 15.8398C44.9512 16.3281 45.1758 16.7839 45.4492 17.207C45.7292 17.6237 46.0645 17.9883 46.4551 18.3008C46.8457 18.6068 47.3014 18.8477 47.8223 19.0234C48.3431 19.1992 48.9323 19.2871 49.5898 19.2871C50.1432 19.2871 50.6576 19.2057 51.1328 19.043C51.6146 18.8737 52.054 18.6491 52.4512 18.3691C52.8483 18.0827 53.1999 17.7572 53.5059 17.3926C53.8184 17.0215 54.0853 16.6341 54.3066 16.2305C54.3197 16.1979 54.3327 16.1816 54.3457 16.1816C54.3652 16.1751 54.3913 16.1719 54.4238 16.1719H54.9219C54.9414 16.1719 54.9609 16.1816 54.9805 16.2012C55.0065 16.2142 55.0195 16.2467 55.0195 16.2988C55.0195 16.3184 55.0033 16.3704 54.9707 16.4551C54.9447 16.5332 54.9154 16.6016 54.8828 16.6602L53.5352 19.6289C53.5221 19.6484 53.5026 19.6647 53.4766 19.6777C53.4505 19.6908 53.4277 19.6973 53.4082 19.6973C53.252 19.6973 53.1413 19.6842 53.0762 19.6582C53.0176 19.6322 52.9557 19.6191 52.8906 19.6191C52.6953 19.6191 52.4349 19.6549 52.1094 19.7266C51.7904 19.7917 51.4421 19.8633 51.0645 19.9414C50.6934 20.0195 50.3158 20.0911 49.9316 20.1562C49.554 20.2279 49.2155 20.2637 48.916 20.2637C48.2324 20.2637 47.5684 20.1888 46.9238 20.0391C46.2793 19.8893 45.6738 19.6745 45.1074 19.3945C44.541 19.1081 44.0234 18.7598 43.5547 18.3496C43.0859 17.9329 42.6823 17.4642 42.3438 16.9434C42.0052 16.4225 41.7415 15.8496 41.5527 15.2246C41.3704 14.5931 41.2793 13.9193 41.2793 13.2031ZM62.7344 15.1758C62.7344 15.1367 62.7246 15.1042 62.7051 15.0781L58.7109 8.69141C58.6003 8.51562 58.4798 8.33984 58.3496 8.16406C58.2259 7.98177 58.0859 7.8125 57.9297 7.65625C57.7799 7.49349 57.6139 7.35352 57.4316 7.23633C57.2559 7.11263 57.0638 7.02474 56.8555 6.97266C56.8229 6.96615 56.7708 6.95638 56.6992 6.94336C56.6276 6.92383 56.5527 6.90755 56.4746 6.89453C56.3965 6.88151 56.3216 6.86849 56.25 6.85547C56.1784 6.84245 56.1263 6.83268 56.0938 6.82617C56.0286 6.81966 55.9668 6.7806 55.9082 6.70898C55.8496 6.63086 55.8203 6.5625 55.8203 6.50391C55.8203 6.49089 55.8203 6.4681 55.8203 6.43555C55.8268 6.40299 55.8333 6.3737 55.8398 6.34766C55.8529 6.3151 55.8691 6.28906 55.8887 6.26953C55.9082 6.24349 55.9342 6.23047 55.9668 6.23047H62.5977C62.6693 6.23047 62.7148 6.26302 62.7344 6.32812C62.7539 6.39323 62.7637 6.45182 62.7637 6.50391C62.7637 6.56901 62.7572 6.63737 62.7441 6.70898C62.7376 6.7806 62.7018 6.81641 62.6367 6.81641C62.4609 6.82943 62.2949 6.84245 62.1387 6.85547C61.9824 6.86849 61.849 6.90104 61.7383 6.95312C61.6276 6.9987 61.5397 7.07031 61.4746 7.16797C61.4095 7.26562 61.377 7.40234 61.377 7.57812C61.377 7.73438 61.416 7.87435 61.4941 7.99805L64.4727 12.7832C64.5443 12.8939 64.5898 12.9622 64.6094 12.9883C64.6354 13.0143 64.6745 13.0273 64.7266 13.0273C64.7721 13.0273 64.8112 13.0013 64.8438 12.9492C64.8828 12.8971 64.9284 12.8288 64.9805 12.7441L67.334 8.75C67.4251 8.60026 67.5163 8.43424 67.6074 8.25195C67.7051 8.06966 67.7539 7.88411 67.7539 7.69531C67.7539 7.51302 67.7279 7.36979 67.6758 7.26562C67.6302 7.15495 67.5586 7.07031 67.4609 7.01172C67.3633 6.95312 67.2428 6.91081 67.0996 6.88477C66.9629 6.85872 66.8034 6.83594 66.6211 6.81641C66.5495 6.8099 66.5072 6.77083 66.4941 6.69922C66.4811 6.6276 66.4746 6.5625 66.4746 6.50391C66.4746 6.45833 66.4811 6.40299 66.4941 6.33789C66.5137 6.26628 66.5625 6.23047 66.6406 6.23047H71.5527C71.6048 6.23047 71.6406 6.26953 71.6602 6.34766C71.6797 6.41927 71.6895 6.47135 71.6895 6.50391C71.6895 6.56901 71.6667 6.62435 71.6211 6.66992C71.582 6.71549 71.5299 6.75456 71.4648 6.78711C71.4062 6.81315 71.3411 6.83594 71.2695 6.85547C71.2044 6.86849 71.1426 6.88151 71.084 6.89453C70.7585 6.96615 70.4753 7.08659 70.2344 7.25586C70 7.41862 69.7689 7.6237 69.541 7.87109C69.5085 7.90365 69.4596 7.95573 69.3945 8.02734C69.3359 8.09896 69.3034 8.14128 69.2969 8.1543L65.5176 14.6484V18.0957C65.5176 18.4863 65.6185 18.7891 65.8203 19.0039C66.0221 19.2188 66.3802 19.3522 66.8945 19.4043C66.9661 19.4108 67.0573 19.4141 67.168 19.4141C67.2786 19.4141 67.373 19.4141 67.4512 19.4141C67.4837 19.4141 67.5033 19.4238 67.5098 19.4434C67.5228 19.4629 67.5293 19.4792 67.5293 19.4922V19.9219C67.5293 19.9349 67.5228 19.9512 67.5098 19.9707C67.5033 19.9902 67.4837 20 67.4512 20H60.8008C60.7682 20 60.7454 19.9902 60.7324 19.9707C60.7259 19.9512 60.7227 19.9349 60.7227 19.9219V19.4922C60.7227 19.4792 60.7259 19.4629 60.7324 19.4434C60.7454 19.4238 60.7682 19.4141 60.8008 19.4141C60.8724 19.4141 60.9635 19.4141 61.0742 19.4141C61.1914 19.4141 61.2858 19.4108 61.3574 19.4043C61.8717 19.3522 62.2298 19.2188 62.4316 19.0039C62.6335 18.7891 62.7344 18.4863 62.7344 18.0957V15.1758ZM91.25 20.2637C91.0938 20.2637 90.9928 20.1921 90.9473 20.0488L88.7793 14.8047L86.5918 19.9219C86.5202 20.0781 86.4453 20.1725 86.3672 20.2051C86.2891 20.2441 86.1751 20.2637 86.0254 20.2637H84.6094C84.5312 20.2637 84.4694 20.2441 84.4238 20.2051C84.3783 20.1725 84.3392 20.1172 84.3066 20.0391L79.248 7.87109C79.1764 7.70182 79.0723 7.56185 78.9355 7.45117C78.7988 7.33398 78.6523 7.24284 78.4961 7.17773C78.3464 7.10612 78.1999 7.05404 78.0566 7.02148C77.9199 6.98242 77.8125 6.95638 77.7344 6.94336C77.6888 6.93685 77.6335 6.92708 77.5684 6.91406C77.5033 6.89453 77.4382 6.87826 77.373 6.86523C77.3079 6.85221 77.2493 6.84245 77.1973 6.83594C77.1517 6.82292 77.1224 6.81641 77.1094 6.81641C77.0573 6.81641 77.0312 6.79036 77.0312 6.73828V6.30859C77.0312 6.25651 77.0573 6.23047 77.1094 6.23047H83.5547C83.5938 6.23047 83.6165 6.24023 83.623 6.25977C83.6296 6.27279 83.6328 6.28906 83.6328 6.30859V6.73828C83.6328 6.7513 83.6263 6.76758 83.6133 6.78711C83.6068 6.80664 83.5872 6.81641 83.5547 6.81641H83.3789C83.125 6.81641 82.9264 6.8457 82.7832 6.9043C82.64 6.96289 82.5293 7.03776 82.4512 7.12891C82.3796 7.21354 82.334 7.30469 82.3145 7.40234C82.3014 7.5 82.2949 7.58789 82.2949 7.66602C82.2949 7.80924 82.3145 7.94271 82.3535 8.06641C82.3991 8.1901 82.4382 8.32031 82.4707 8.45703L85.9766 16.9043C86.0091 16.9694 86.071 17.002 86.1621 17.002C86.2012 17.002 86.2305 16.9922 86.25 16.9727C86.2695 16.9531 86.2891 16.9271 86.3086 16.8945L87.998 12.9102L85.8594 7.77344C85.7747 7.57161 85.6445 7.39258 85.4688 7.23633C85.293 7.08008 85.1237 6.98242 84.9609 6.94336C84.8698 6.91081 84.7656 6.88151 84.6484 6.85547C84.5312 6.82943 84.4564 6.81641 84.4238 6.81641C84.3717 6.81641 84.3457 6.79036 84.3457 6.73828V6.30859C84.3457 6.25651 84.3717 6.23047 84.4238 6.23047H93.7012C93.7402 6.23047 93.763 6.24023 93.7695 6.25977C93.776 6.2793 93.7793 6.29557 93.7793 6.30859V6.73828C93.7793 6.75781 93.776 6.77734 93.7695 6.79688C93.763 6.8099 93.7402 6.81641 93.7012 6.81641H93.3398C93.1055 6.81641 92.8971 6.84896 92.7148 6.91406C92.5391 6.97917 92.3796 7.08008 92.2363 7.2168C92.0931 7.35352 91.9596 7.52604 91.8359 7.73438C91.7188 7.94271 91.6016 8.18685 91.4844 8.4668L90.2832 11.2598L92.6172 16.875C92.6497 16.9401 92.7116 16.9727 92.8027 16.9727C92.8678 16.9727 92.9167 16.9368 92.9492 16.8652L96.8457 7.73438C96.9238 7.55208 96.9629 7.39909 96.9629 7.27539C96.9629 7.10612 96.888 6.98893 96.7383 6.92383C96.5951 6.85221 96.3249 6.81641 95.9277 6.81641H95.3223C95.2702 6.81641 95.2441 6.79036 95.2441 6.73828V6.30859C95.2441 6.29557 95.2474 6.2793 95.2539 6.25977C95.2604 6.24023 95.2832 6.23047 95.3223 6.23047H99.9609C100 6.23047 100.023 6.24023 100.029 6.25977C100.036 6.2793 100.039 6.29557 100.039 6.30859V6.73828C100.039 6.75781 100.036 6.77734 100.029 6.79688C100.023 6.8099 100 6.81641 99.9609 6.81641H99.502C99.3457 6.81641 99.209 6.84896 99.0918 6.91406C98.9746 6.97266 98.8639 7.06706 98.7598 7.19727C98.6621 7.32096 98.5645 7.47721 98.4668 7.66602C98.3757 7.85482 98.278 8.07617 98.1738 8.33008L93.2227 19.9219C93.151 20.0781 93.0762 20.1725 92.998 20.2051C92.9199 20.2441 92.806 20.2637 92.6562 20.2637H91.25ZM90.2832 7.53906C90.3288 7.4349 90.3548 7.35677 90.3613 7.30469C90.3743 7.2526 90.3809 7.19401 90.3809 7.12891C90.3809 6.92057 90.1595 6.81641 89.7168 6.81641C89.5345 6.81641 89.3848 6.83919 89.2676 6.88477C89.1504 6.92383 89.056 6.97591 88.9844 7.04102C88.9193 7.09961 88.8737 7.16797 88.8477 7.24609C88.8216 7.32422 88.8086 7.39909 88.8086 7.4707C88.8086 7.54232 88.8184 7.61719 88.8379 7.69531C88.8574 7.77344 88.89 7.88086 88.9355 8.01758C88.9876 8.14779 89.056 8.32031 89.1406 8.53516C89.2318 8.75 89.349 9.02995 89.4922 9.375L90.2832 7.53906ZM97.1191 19.541C97.1191 19.4889 97.1452 19.4629 97.1973 19.4629C97.321 19.4564 97.4642 19.4401 97.627 19.4141C97.7962 19.3815 97.9655 19.3197 98.1348 19.2285C98.3105 19.1309 98.4798 18.9909 98.6426 18.8086C98.8053 18.6198 98.9421 18.3626 99.0527 18.0371L102.979 6.65039C102.979 6.6569 102.979 6.65365 102.979 6.64062C102.985 6.6276 102.988 6.61458 102.988 6.60156C102.988 6.55599 102.969 6.50065 102.93 6.43555C102.897 6.36393 102.881 6.31185 102.881 6.2793C102.881 6.24674 102.894 6.23047 102.92 6.23047H105.752C105.765 6.23698 105.781 6.24349 105.801 6.25C105.827 6.25651 105.846 6.27604 105.859 6.30859L109.99 17.9004C110.055 18.0827 110.117 18.2389 110.176 18.3691C110.234 18.4993 110.303 18.6165 110.381 18.7207C110.465 18.8184 110.57 18.9095 110.693 18.9941C110.817 19.0723 110.977 19.1536 111.172 19.2383C111.263 19.2839 111.387 19.3327 111.543 19.3848C111.699 19.4368 111.849 19.4629 111.992 19.4629C112.025 19.4629 112.044 19.4727 112.051 19.4922C112.064 19.5117 112.07 19.5312 112.07 19.5508V19.9219C112.07 19.9349 112.064 19.9512 112.051 19.9707C112.044 19.9902 112.025 20 111.992 20H105.137C105.104 20 105.081 19.9902 105.068 19.9707C105.062 19.9512 105.059 19.9349 105.059 19.9219V19.541C105.059 19.528 105.062 19.5117 105.068 19.4922C105.081 19.4727 105.104 19.4629 105.137 19.4629C105.163 19.4629 105.189 19.4629 105.215 19.4629C105.241 19.4564 105.26 19.4531 105.273 19.4531C105.345 19.4466 105.446 19.4401 105.576 19.4336C105.713 19.4271 105.859 19.4173 106.016 19.4043C106.172 19.3848 106.328 19.3587 106.484 19.3262C106.647 19.2871 106.794 19.235 106.924 19.1699C107.054 19.0983 107.161 19.0072 107.246 18.8965C107.331 18.7858 107.373 18.6491 107.373 18.4863C107.373 18.4473 107.367 18.4017 107.354 18.3496L106.074 14.8242C106.068 14.8112 106.055 14.7819 106.035 14.7363C106.022 14.6908 105.996 14.6452 105.957 14.5996C105.924 14.5475 105.879 14.502 105.82 14.4629C105.768 14.4238 105.703 14.4043 105.625 14.4043H102.1C102.015 14.4043 101.943 14.4238 101.885 14.4629C101.826 14.502 101.777 14.5443 101.738 14.5898C101.699 14.6354 101.667 14.681 101.641 14.7266C101.621 14.7721 101.611 14.7982 101.611 14.8047C101.403 15.4167 101.227 15.9342 101.084 16.3574C100.941 16.7741 100.82 17.1191 100.723 17.3926C100.632 17.666 100.56 17.8776 100.508 18.0273C100.456 18.1771 100.417 18.2878 100.391 18.3594C100.371 18.4245 100.358 18.4668 100.352 18.4863C100.352 18.4993 100.352 18.5059 100.352 18.5059C100.352 18.5254 100.355 18.5482 100.361 18.5742C100.368 18.5938 100.374 18.6133 100.381 18.6328C100.433 18.7956 100.527 18.9323 100.664 19.043C100.807 19.1471 100.97 19.2318 101.152 19.2969C101.335 19.3555 101.52 19.3978 101.709 19.4238C101.904 19.4499 102.077 19.4629 102.227 19.4629H102.48C102.513 19.4629 102.533 19.4727 102.539 19.4922C102.552 19.5117 102.559 19.528 102.559 19.541V19.9219C102.559 19.9349 102.552 19.9512 102.539 19.9707C102.533 19.9902 102.513 20 102.48 20H97.1973C97.1452 20 97.1191 19.974 97.1191 19.9219V19.541ZM102.236 12.998C102.223 13.0306 102.214 13.0632 102.207 13.0957C102.201 13.1283 102.197 13.1608 102.197 13.1934C102.197 13.2324 102.207 13.265 102.227 13.291C102.246 13.3105 102.285 13.3203 102.344 13.3203H105.273C105.345 13.3203 105.391 13.3073 105.41 13.2812C105.436 13.2487 105.449 13.2129 105.449 13.1738C105.449 13.1413 105.446 13.112 105.439 13.0859C105.433 13.0599 105.423 13.0306 105.41 12.998L104.111 9.43359C104.079 9.34245 104.03 9.27734 103.965 9.23828C103.9 9.19271 103.841 9.16992 103.789 9.16992C103.737 9.16992 103.678 9.19596 103.613 9.24805C103.548 9.29362 103.499 9.35872 103.467 9.44336L102.236 12.998ZM112.559 19.4922C112.559 19.4857 112.562 19.4727 112.568 19.4531C112.575 19.4271 112.598 19.4141 112.637 19.4141C112.676 19.4141 112.738 19.4076 112.822 19.3945C112.907 19.3815 112.995 19.3685 113.086 19.3555C113.177 19.3424 113.262 19.3294 113.34 19.3164C113.418 19.2969 113.473 19.2839 113.506 19.2773C113.877 19.1927 114.134 19.056 114.277 18.8672C114.427 18.6719 114.502 18.431 114.502 18.1445V8.22266C114.502 7.89714 114.434 7.63997 114.297 7.45117C114.16 7.26237 114.001 7.1224 113.818 7.03125C113.643 6.93359 113.47 6.875 113.301 6.85547C113.138 6.82943 113.027 6.81641 112.969 6.81641H112.598C112.565 6.81641 112.542 6.80664 112.529 6.78711C112.523 6.76758 112.52 6.7513 112.52 6.73828V6.30859C112.52 6.29557 112.523 6.28255 112.529 6.26953C112.536 6.25 112.559 6.23698 112.598 6.23047C112.604 6.23047 112.617 6.23047 112.637 6.23047C112.663 6.23047 112.712 6.23047 112.783 6.23047C112.855 6.22396 112.959 6.2207 113.096 6.2207C113.232 6.21419 113.424 6.20768 113.672 6.20117C114.03 6.19466 114.411 6.1849 114.814 6.17188C115.225 6.15885 115.638 6.14583 116.055 6.13281C116.471 6.11979 116.882 6.11003 117.285 6.10352C117.695 6.09049 118.079 6.08398 118.438 6.08398H119.424C119.938 6.08398 120.462 6.17188 120.996 6.34766C121.53 6.52344 122.012 6.78385 122.441 7.12891C122.878 7.46745 123.232 7.89062 123.506 8.39844C123.786 8.90625 123.926 9.49219 123.926 10.1562C123.926 10.5859 123.867 10.9701 123.75 11.3086C123.633 11.6406 123.47 11.9368 123.262 12.1973C123.06 12.4512 122.816 12.6758 122.529 12.8711C122.249 13.0664 121.943 13.2389 121.611 13.3887L124.57 18.0762C124.824 18.4798 125.12 18.8477 125.459 19.1797C125.798 19.5052 126.191 19.7331 126.641 19.8633C126.693 19.8763 126.722 19.8958 126.729 19.9219C126.742 19.9414 126.748 19.9674 126.748 20C126.748 20.0977 126.722 20.1628 126.67 20.1953C126.618 20.2279 126.536 20.2441 126.426 20.2441C126.152 20.2441 125.84 20.2246 125.488 20.1855C125.143 20.153 124.795 20.0944 124.443 20.0098C124.092 19.9316 123.757 19.8275 123.438 19.6973C123.125 19.5671 122.861 19.4043 122.646 19.209C122.438 19.0267 122.227 18.7956 122.012 18.5156C121.797 18.2357 121.579 17.9362 121.357 17.6172C121.143 17.2917 120.928 16.9564 120.713 16.6113C120.505 16.2598 120.299 15.918 120.098 15.5859C119.902 15.2539 119.714 14.9447 119.531 14.6582C119.349 14.3717 119.183 14.1276 119.033 13.9258L117.51 13.8184C117.503 13.8184 117.477 13.8184 117.432 13.8184C117.386 13.8184 117.354 13.8249 117.334 13.8379C117.314 13.8509 117.301 13.8639 117.295 13.877C117.288 13.89 117.285 13.916 117.285 13.9551V18.1152C117.285 18.291 117.308 18.444 117.354 18.5742C117.399 18.7044 117.474 18.8184 117.578 18.916C117.689 19.0072 117.829 19.082 117.998 19.1406C118.174 19.1992 118.385 19.2448 118.633 19.2773C118.672 19.2839 118.727 19.2936 118.799 19.3066C118.877 19.3197 118.958 19.3359 119.043 19.3555C119.134 19.3685 119.222 19.3815 119.307 19.3945C119.391 19.4076 119.463 19.4141 119.521 19.4141C119.561 19.4141 119.583 19.4238 119.59 19.4434C119.596 19.4629 119.6 19.4792 119.6 19.4922V19.9219C119.6 19.9349 119.593 19.9512 119.58 19.9707C119.574 19.9902 119.554 20 119.521 20H112.637C112.604 20 112.581 19.9544 112.568 19.8633C112.562 19.7721 112.559 19.6875 112.559 19.6094V19.4922ZM117.305 12.8418C117.311 12.8939 117.324 12.9427 117.344 12.9883C117.37 13.0273 117.419 13.0501 117.49 13.0566C117.549 13.0632 117.637 13.0762 117.754 13.0957C117.871 13.1087 118.034 13.1152 118.242 13.1152C118.815 13.1152 119.287 13.0273 119.658 12.8516C120.029 12.6758 120.322 12.4414 120.537 12.1484C120.752 11.849 120.898 11.5072 120.977 11.123C121.061 10.7389 121.104 10.3385 121.104 9.92188C121.104 9.48568 121.035 9.07227 120.898 8.68164C120.762 8.29102 120.57 7.95247 120.322 7.66602C120.081 7.37956 119.788 7.15169 119.443 6.98242C119.105 6.81315 118.73 6.72852 118.32 6.72852C118.229 6.72852 118.158 6.73177 118.105 6.73828C118.053 6.73828 118.001 6.74154 117.949 6.74805C117.904 6.74805 117.848 6.7513 117.783 6.75781C117.725 6.75781 117.64 6.76107 117.529 6.76758C117.49 6.76758 117.438 6.77734 117.373 6.79688C117.314 6.8099 117.285 6.85221 117.285 6.92383V12.5488L117.305 12.8418ZM127.539 20C127.526 20 127.51 19.9935 127.49 19.9805C127.471 19.9609 127.461 19.9414 127.461 19.9219V19.4922C127.461 19.4401 127.487 19.4141 127.539 19.4141C127.611 19.4141 127.692 19.4141 127.783 19.4141C127.874 19.4141 127.962 19.4108 128.047 19.4043C128.138 19.3978 128.219 19.3913 128.291 19.3848C128.363 19.3783 128.418 19.3652 128.457 19.3457C128.62 19.2676 128.753 19.1634 128.857 19.0332C128.962 18.903 129.04 18.7533 129.092 18.584C129.15 18.4147 129.189 18.2292 129.209 18.0273C129.229 17.8255 129.238 17.6107 129.238 17.3828V7.62695C129.238 7.45117 129.167 7.3112 129.023 7.20703C128.887 7.09635 128.724 7.01497 128.535 6.96289C128.353 6.9043 128.164 6.86523 127.969 6.8457C127.78 6.82617 127.637 6.81641 127.539 6.81641C127.507 6.81641 127.484 6.80664 127.471 6.78711C127.464 6.76758 127.461 6.7513 127.461 6.73828V6.30859C127.461 6.29557 127.464 6.2793 127.471 6.25977C127.484 6.24023 127.507 6.23047 127.539 6.23047H131.963L140.381 15.5469C140.413 15.5794 140.436 15.6055 140.449 15.625C140.462 15.638 140.479 15.6445 140.498 15.6445C140.524 15.6445 140.54 15.6348 140.547 15.6152C140.553 15.5957 140.557 15.5762 140.557 15.5566V9.75586C140.557 9.11133 140.534 8.59701 140.488 8.21289C140.443 7.82227 140.358 7.52604 140.234 7.32422C140.111 7.11589 139.945 6.97917 139.736 6.91406C139.528 6.84896 139.261 6.81641 138.936 6.81641H138.438C138.405 6.81641 138.382 6.80664 138.369 6.78711C138.363 6.76758 138.359 6.7513 138.359 6.73828V6.30859C138.359 6.29557 138.363 6.2793 138.369 6.25977C138.382 6.24023 138.405 6.23047 138.438 6.23047H143.809C143.848 6.23047 143.87 6.24023 143.877 6.25977C143.883 6.2793 143.887 6.29557 143.887 6.30859V6.73828C143.887 6.7513 143.88 6.76758 143.867 6.78711C143.861 6.80664 143.841 6.81641 143.809 6.81641C143.678 6.81641 143.509 6.84245 143.301 6.89453C143.099 6.94661 142.9 7.02148 142.705 7.11914C142.51 7.2168 142.34 7.33724 142.197 7.48047C142.061 7.6237 141.992 7.78646 141.992 7.96875V19.5215C141.992 19.6322 141.966 19.7266 141.914 19.8047C141.862 19.8763 141.794 19.9349 141.709 19.9805C141.631 20.026 141.543 20.0586 141.445 20.0781C141.354 20.1042 141.27 20.1172 141.191 20.1172C141.061 20.1172 140.908 20.0879 140.732 20.0293C140.563 19.9772 140.394 19.8568 140.225 19.668L131.006 9.44336C130.96 9.39779 130.928 9.37174 130.908 9.36523C130.889 9.35221 130.863 9.3457 130.83 9.3457C130.798 9.3457 130.781 9.37826 130.781 9.44336V18.1641C130.781 18.3464 130.824 18.5059 130.908 18.6426C130.999 18.7728 131.113 18.8867 131.25 18.9844C131.387 19.0755 131.536 19.1504 131.699 19.209C131.868 19.2611 132.031 19.3034 132.188 19.3359C132.35 19.3685 132.493 19.3913 132.617 19.4043C132.747 19.4108 132.845 19.4141 132.91 19.4141C132.943 19.4141 132.965 19.4271 132.979 19.4531C132.985 19.4661 132.988 19.4792 132.988 19.4922V19.9219C132.988 19.9349 132.982 19.9512 132.969 19.9707C132.962 19.9902 132.943 20 132.91 20H127.539ZM144.307 19.502C144.307 19.4954 144.31 19.4824 144.316 19.4629C144.323 19.4368 144.346 19.4238 144.385 19.4238H144.6C144.873 19.4043 145.153 19.3945 145.439 19.3945C145.726 19.388 145.986 19.3522 146.221 19.2871C146.455 19.2155 146.647 19.0951 146.797 18.9258C146.947 18.75 147.021 18.4798 147.021 18.1152V8.11523C147.021 7.86133 146.969 7.65625 146.865 7.5C146.761 7.33724 146.624 7.20703 146.455 7.10938C146.286 7.01172 146.094 6.9401 145.879 6.89453C145.664 6.84245 145.446 6.80013 145.225 6.76758H145.02C144.987 6.76758 144.964 6.75781 144.951 6.73828C144.945 6.71875 144.941 6.70247 144.941 6.68945V6.30859C144.941 6.29557 144.945 6.2793 144.951 6.25977C144.964 6.24023 144.987 6.23047 145.02 6.23047H154.746C154.863 6.23047 154.948 6.25326 155 6.29883C155.052 6.33789 155.085 6.42904 155.098 6.57227L155.273 9.69727C155.273 9.72982 155.244 9.75586 155.186 9.77539C155.133 9.78841 155.085 9.79492 155.039 9.79492C154.987 9.79492 154.935 9.78841 154.883 9.77539C154.831 9.76237 154.795 9.74284 154.775 9.7168C154.73 9.65169 154.697 9.55729 154.678 9.43359C154.658 9.30339 154.635 9.16016 154.609 9.00391C154.59 8.84766 154.557 8.6849 154.512 8.51562C154.473 8.34635 154.411 8.1901 154.326 8.04688C154.242 7.90365 154.124 7.77995 153.975 7.67578C153.831 7.5651 153.646 7.49023 153.418 7.45117H149.932C149.847 7.45117 149.805 7.49349 149.805 7.57812V12.2363C149.805 12.3014 149.837 12.334 149.902 12.334H152.695C152.858 12.334 153.018 12.3145 153.174 12.2754C153.337 12.2298 153.477 12.1517 153.594 12.041C153.717 11.9303 153.815 11.7773 153.887 11.582C153.965 11.3802 154.004 11.123 154.004 10.8105C154.004 10.7585 154.03 10.7324 154.082 10.7324H154.463C154.515 10.7324 154.541 10.7585 154.541 10.8105V15.2832C154.541 15.3158 154.531 15.3385 154.512 15.3516C154.492 15.3581 154.476 15.3613 154.463 15.3613H154.082C154.049 15.3613 154.027 15.3516 154.014 15.332C154.007 15.3125 154.004 15.2962 154.004 15.2832C154.004 14.9186 153.965 14.6257 153.887 14.4043C153.815 14.1764 153.717 14.0007 153.594 13.877C153.47 13.7467 153.327 13.6621 153.164 13.623C153.008 13.5775 152.842 13.5547 152.666 13.5547H149.902C149.837 13.5547 149.805 13.5872 149.805 13.6523V17.9199C149.805 18.1087 149.834 18.2617 149.893 18.3789C149.951 18.4896 150.029 18.5742 150.127 18.6328C150.231 18.6914 150.348 18.7305 150.479 18.75C150.609 18.7695 150.745 18.7793 150.889 18.7793H153.555C153.932 18.7793 154.248 18.6947 154.502 18.5254C154.756 18.3496 154.961 18.138 155.117 17.8906C155.273 17.6432 155.387 17.3861 155.459 17.1191C155.537 16.8522 155.586 16.6243 155.605 16.4355C155.618 16.3509 155.661 16.2858 155.732 16.2402C155.804 16.1882 155.885 16.1621 155.977 16.1621C156.009 16.1621 156.048 16.1751 156.094 16.2012C156.139 16.2272 156.162 16.2565 156.162 16.2891L155.84 19.8633C155.827 19.8958 155.807 19.9284 155.781 19.9609C155.762 19.987 155.736 20 155.703 20H144.385C144.346 20 144.323 19.9902 144.316 19.9707C144.31 19.9447 144.307 19.9284 144.307 19.9219V19.7852V19.502ZM157.461 19.4922C157.461 19.4857 157.464 19.4727 157.471 19.4531C157.477 19.4271 157.5 19.4141 157.539 19.4141C157.578 19.4141 157.64 19.4076 157.725 19.3945C157.809 19.3815 157.897 19.3685 157.988 19.3555C158.079 19.3424 158.164 19.3294 158.242 19.3164C158.32 19.2969 158.376 19.2839 158.408 19.2773C158.779 19.1927 159.036 19.056 159.18 18.8672C159.329 18.6719 159.404 18.431 159.404 18.1445V8.22266C159.404 7.89714 159.336 7.63997 159.199 7.45117C159.062 7.26237 158.903 7.1224 158.721 7.03125C158.545 6.93359 158.372 6.875 158.203 6.85547C158.04 6.82943 157.93 6.81641 157.871 6.81641H157.5C157.467 6.81641 157.445 6.80664 157.432 6.78711C157.425 6.76758 157.422 6.7513 157.422 6.73828V6.30859C157.422 6.29557 157.425 6.28255 157.432 6.26953C157.438 6.25 157.461 6.23698 157.5 6.23047C157.507 6.23047 157.52 6.23047 157.539 6.23047C157.565 6.23047 157.614 6.23047 157.686 6.23047C157.757 6.22396 157.861 6.2207 157.998 6.2207C158.135 6.21419 158.327 6.20768 158.574 6.20117C158.932 6.19466 159.313 6.1849 159.717 6.17188C160.127 6.15885 160.54 6.14583 160.957 6.13281C161.374 6.11979 161.784 6.11003 162.188 6.10352C162.598 6.09049 162.982 6.08398 163.34 6.08398H164.326C164.84 6.08398 165.365 6.17188 165.898 6.34766C166.432 6.52344 166.914 6.78385 167.344 7.12891C167.78 7.46745 168.135 7.89062 168.408 8.39844C168.688 8.90625 168.828 9.49219 168.828 10.1562C168.828 10.5859 168.77 10.9701 168.652 11.3086C168.535 11.6406 168.372 11.9368 168.164 12.1973C167.962 12.4512 167.718 12.6758 167.432 12.8711C167.152 13.0664 166.846 13.2389 166.514 13.3887L169.473 18.0762C169.727 18.4798 170.023 18.8477 170.361 19.1797C170.7 19.5052 171.094 19.7331 171.543 19.8633C171.595 19.8763 171.624 19.8958 171.631 19.9219C171.644 19.9414 171.65 19.9674 171.65 20C171.65 20.0977 171.624 20.1628 171.572 20.1953C171.52 20.2279 171.439 20.2441 171.328 20.2441C171.055 20.2441 170.742 20.2246 170.391 20.1855C170.046 20.153 169.697 20.0944 169.346 20.0098C168.994 19.9316 168.659 19.8275 168.34 19.6973C168.027 19.5671 167.764 19.4043 167.549 19.209C167.34 19.0267 167.129 18.7956 166.914 18.5156C166.699 18.2357 166.481 17.9362 166.26 17.6172C166.045 17.2917 165.83 16.9564 165.615 16.6113C165.407 16.2598 165.202 15.918 165 15.5859C164.805 15.2539 164.616 14.9447 164.434 14.6582C164.251 14.3717 164.085 14.1276 163.936 13.9258L162.412 13.8184C162.406 13.8184 162.38 13.8184 162.334 13.8184C162.288 13.8184 162.256 13.8249 162.236 13.8379C162.217 13.8509 162.204 13.8639 162.197 13.877C162.191 13.89 162.188 13.916 162.188 13.9551V18.1152C162.188 18.291 162.21 18.444 162.256 18.5742C162.301 18.7044 162.376 18.8184 162.48 18.916C162.591 19.0072 162.731 19.082 162.9 19.1406C163.076 19.1992 163.288 19.2448 163.535 19.2773C163.574 19.2839 163.63 19.2936 163.701 19.3066C163.779 19.3197 163.861 19.3359 163.945 19.3555C164.036 19.3685 164.124 19.3815 164.209 19.3945C164.294 19.4076 164.365 19.4141 164.424 19.4141C164.463 19.4141 164.486 19.4238 164.492 19.4434C164.499 19.4629 164.502 19.4792 164.502 19.4922V19.9219C164.502 19.9349 164.495 19.9512 164.482 19.9707C164.476 19.9902 164.456 20 164.424 20H157.539C157.507 20 157.484 19.9544 157.471 19.8633C157.464 19.7721 157.461 19.6875 157.461 19.6094V19.4922ZM162.207 12.8418C162.214 12.8939 162.227 12.9427 162.246 12.9883C162.272 13.0273 162.321 13.0501 162.393 13.0566C162.451 13.0632 162.539 13.0762 162.656 13.0957C162.773 13.1087 162.936 13.1152 163.145 13.1152C163.717 13.1152 164.189 13.0273 164.561 12.8516C164.932 12.6758 165.225 12.4414 165.439 12.1484C165.654 11.849 165.801 11.5072 165.879 11.123C165.964 10.7389 166.006 10.3385 166.006 9.92188C166.006 9.48568 165.938 9.07227 165.801 8.68164C165.664 8.29102 165.472 7.95247 165.225 7.66602C164.984 7.37956 164.691 7.15169 164.346 6.98242C164.007 6.81315 163.633 6.72852 163.223 6.72852C163.132 6.72852 163.06 6.73177 163.008 6.73828C162.956 6.73828 162.904 6.74154 162.852 6.74805C162.806 6.74805 162.751 6.7513 162.686 6.75781C162.627 6.75781 162.542 6.76107 162.432 6.76758C162.393 6.76758 162.34 6.77734 162.275 6.79688C162.217 6.8099 162.188 6.85221 162.188 6.92383V12.5488L162.207 12.8418ZM178.271 12.998C178.271 12.3405 178.359 11.709 178.535 11.1035C178.711 10.498 178.958 9.93164 179.277 9.4043C179.596 8.87044 179.977 8.38867 180.42 7.95898C180.869 7.52279 181.361 7.14844 181.895 6.83594C182.428 6.52344 182.998 6.28255 183.604 6.11328C184.215 5.94401 184.844 5.85938 185.488 5.85938C185.833 5.85938 186.185 5.88216 186.543 5.92773C186.901 5.9668 187.249 6.01888 187.588 6.08398C187.933 6.14909 188.258 6.2207 188.564 6.29883C188.87 6.37695 189.137 6.44857 189.365 6.51367C189.6 6.57878 189.788 6.63411 189.932 6.67969C190.081 6.71875 190.166 6.73828 190.186 6.73828H190.303C190.355 6.73828 190.394 6.73503 190.42 6.72852C190.452 6.71549 190.479 6.70247 190.498 6.68945C190.524 6.67643 190.55 6.66667 190.576 6.66016C190.602 6.64714 190.641 6.64062 190.693 6.64062H191.084C191.097 6.64062 191.117 6.64714 191.143 6.66016C191.175 6.66667 191.191 6.69596 191.191 6.74805V10C191.191 10.0716 191.159 10.1204 191.094 10.1465C191.035 10.1725 190.983 10.1855 190.938 10.1855C190.879 10.179 190.827 10.1465 190.781 10.0879C190.736 10.0293 190.693 9.96419 190.654 9.89258C190.615 9.82096 190.583 9.7526 190.557 9.6875C190.531 9.6224 190.514 9.57357 190.508 9.54102C190.345 9.0332 190.114 8.60677 189.814 8.26172C189.521 7.91016 189.173 7.6237 188.77 7.40234C188.372 7.18099 187.933 7.02148 187.451 6.92383C186.976 6.82617 186.475 6.77734 185.947 6.77734C185.042 6.77734 184.287 6.94336 183.682 7.27539C183.076 7.60742 182.588 8.05339 182.217 8.61328C181.852 9.17318 181.592 9.82096 181.436 10.5566C181.286 11.2858 181.211 12.054 181.211 12.8613C181.211 13.4147 181.266 13.9583 181.377 14.4922C181.488 15.026 181.644 15.5339 181.846 16.0156C182.054 16.4909 182.305 16.9303 182.598 17.334C182.891 17.7311 183.216 18.0762 183.574 18.3691C183.939 18.6556 184.329 18.8802 184.746 19.043C185.169 19.2057 185.615 19.2871 186.084 19.2871C186.611 19.2871 187.074 19.2318 187.471 19.1211C187.874 19.0039 188.2 18.7793 188.447 18.4473V16.2891C188.447 16.0091 188.411 15.7617 188.34 15.5469C188.275 15.3255 188.151 15.14 187.969 14.9902C187.786 14.8405 187.539 14.7266 187.227 14.6484C186.914 14.5703 186.514 14.5312 186.025 14.5312C185.986 14.5312 185.957 14.4954 185.938 14.4238C185.924 14.3457 185.918 14.2806 185.918 14.2285C185.918 14.196 185.924 14.1406 185.938 14.0625C185.957 13.9844 185.986 13.9453 186.025 13.9453H192.822C192.874 13.9453 192.904 13.9844 192.91 14.0625C192.923 14.1341 192.93 14.1895 192.93 14.2285C192.93 14.2611 192.923 14.3132 192.91 14.3848C192.897 14.4564 192.868 14.5052 192.822 14.5312C192.646 14.6029 192.464 14.6647 192.275 14.7168C192.093 14.7689 191.924 14.8372 191.768 14.9219C191.611 15.0065 191.481 15.1237 191.377 15.2734C191.279 15.4167 191.23 15.6152 191.23 15.8691V18.7207C191.23 18.7728 191.208 18.8151 191.162 18.8477C191.123 18.8802 191.058 18.916 190.967 18.9551C190.602 19.1309 190.189 19.2969 189.727 19.4531C189.264 19.6094 188.789 19.7493 188.301 19.873C187.812 19.9902 187.327 20.0846 186.846 20.1562C186.364 20.2279 185.924 20.2637 185.527 20.2637C184.518 20.2637 183.574 20.0977 182.695 19.7656C181.816 19.4271 181.048 18.9453 180.391 18.3203C179.733 17.6888 179.215 16.9238 178.838 16.0254C178.46 15.127 178.271 14.1178 178.271 12.998ZM193.486 19.502C193.486 19.4954 193.49 19.4824 193.496 19.4629C193.503 19.4368 193.525 19.4238 193.564 19.4238H193.779C194.053 19.4043 194.333 19.3945 194.619 19.3945C194.906 19.388 195.166 19.3522 195.4 19.2871C195.635 19.2155 195.827 19.0951 195.977 18.9258C196.126 18.75 196.201 18.4798 196.201 18.1152V8.11523C196.201 7.86133 196.149 7.65625 196.045 7.5C195.941 7.33724 195.804 7.20703 195.635 7.10938C195.465 7.01172 195.273 6.9401 195.059 6.89453C194.844 6.84245 194.626 6.80013 194.404 6.76758H194.199C194.167 6.76758 194.144 6.75781 194.131 6.73828C194.124 6.71875 194.121 6.70247 194.121 6.68945V6.30859C194.121 6.29557 194.124 6.2793 194.131 6.25977C194.144 6.24023 194.167 6.23047 194.199 6.23047H203.926C204.043 6.23047 204.128 6.25326 204.18 6.29883C204.232 6.33789 204.264 6.42904 204.277 6.57227L204.453 9.69727C204.453 9.72982 204.424 9.75586 204.365 9.77539C204.313 9.78841 204.264 9.79492 204.219 9.79492C204.167 9.79492 204.115 9.78841 204.062 9.77539C204.01 9.76237 203.975 9.74284 203.955 9.7168C203.91 9.65169 203.877 9.55729 203.857 9.43359C203.838 9.30339 203.815 9.16016 203.789 9.00391C203.77 8.84766 203.737 8.6849 203.691 8.51562C203.652 8.34635 203.59 8.1901 203.506 8.04688C203.421 7.90365 203.304 7.77995 203.154 7.67578C203.011 7.5651 202.826 7.49023 202.598 7.45117H199.111C199.027 7.45117 198.984 7.49349 198.984 7.57812V12.2363C198.984 12.3014 199.017 12.334 199.082 12.334H201.875C202.038 12.334 202.197 12.3145 202.354 12.2754C202.516 12.2298 202.656 12.1517 202.773 12.041C202.897 11.9303 202.995 11.7773 203.066 11.582C203.145 11.3802 203.184 11.123 203.184 10.8105C203.184 10.7585 203.21 10.7324 203.262 10.7324H203.643C203.695 10.7324 203.721 10.7585 203.721 10.8105V15.2832C203.721 15.3158 203.711 15.3385 203.691 15.3516C203.672 15.3581 203.656 15.3613 203.643 15.3613H203.262C203.229 15.3613 203.206 15.3516 203.193 15.332C203.187 15.3125 203.184 15.2962 203.184 15.2832C203.184 14.9186 203.145 14.6257 203.066 14.4043C202.995 14.1764 202.897 14.0007 202.773 13.877C202.65 13.7467 202.507 13.6621 202.344 13.623C202.188 13.5775 202.021 13.5547 201.846 13.5547H199.082C199.017 13.5547 198.984 13.5872 198.984 13.6523V17.9199C198.984 18.1087 199.014 18.2617 199.072 18.3789C199.131 18.4896 199.209 18.5742 199.307 18.6328C199.411 18.6914 199.528 18.7305 199.658 18.75C199.788 18.7695 199.925 18.7793 200.068 18.7793H202.734C203.112 18.7793 203.428 18.6947 203.682 18.5254C203.936 18.3496 204.141 18.138 204.297 17.8906C204.453 17.6432 204.567 17.3861 204.639 17.1191C204.717 16.8522 204.766 16.6243 204.785 16.4355C204.798 16.3509 204.84 16.2858 204.912 16.2402C204.984 16.1882 205.065 16.1621 205.156 16.1621C205.189 16.1621 205.228 16.1751 205.273 16.2012C205.319 16.2272 205.342 16.2565 205.342 16.2891L205.02 19.8633C205.007 19.8958 204.987 19.9284 204.961 19.9609C204.941 19.987 204.915 20 204.883 20H193.564C193.525 20 193.503 19.9902 193.496 19.9707C193.49 19.9447 193.486 19.9284 193.486 19.9219V19.7852V19.502ZM212.148 7.72461C212.148 7.58789 212.119 7.51302 212.061 7.5C212.008 7.48047 211.943 7.46419 211.865 7.45117H208.555C208.314 7.50326 208.125 7.60091 207.988 7.74414C207.852 7.88086 207.744 8.04362 207.666 8.23242C207.588 8.42122 207.529 8.6263 207.49 8.84766C207.451 9.0625 207.409 9.27083 207.363 9.47266C207.35 9.53125 207.337 9.60286 207.324 9.6875C207.311 9.76562 207.298 9.8112 207.285 9.82422C207.272 9.84375 207.249 9.85352 207.217 9.85352H206.895C206.855 9.85352 206.836 9.84049 206.836 9.81445V9.49219L207.197 6.15234C207.21 6.08073 207.24 6.01237 207.285 5.94727C207.331 5.88216 207.402 5.84961 207.5 5.84961C207.546 5.84961 207.588 5.86263 207.627 5.88867C207.673 5.91471 207.715 5.94727 207.754 5.98633C207.793 6.01888 207.829 6.05143 207.861 6.08398C207.9 6.11654 207.939 6.13932 207.979 6.15234C208.057 6.1849 208.128 6.20768 208.193 6.2207C208.265 6.22721 208.343 6.23047 208.428 6.23047H218.662C218.747 6.23047 218.822 6.22721 218.887 6.2207C218.958 6.20768 219.033 6.1849 219.111 6.15234C219.15 6.13932 219.186 6.11654 219.219 6.08398C219.258 6.05143 219.297 6.01888 219.336 5.98633C219.375 5.94727 219.414 5.91471 219.453 5.88867C219.499 5.86263 219.544 5.84961 219.59 5.84961C219.688 5.84961 219.759 5.88216 219.805 5.94727C219.85 6.01237 219.88 6.08073 219.893 6.15234L220.254 9.49219V9.81445C220.254 9.84049 220.234 9.85352 220.195 9.85352H219.873C219.84 9.85352 219.818 9.84375 219.805 9.82422C219.792 9.8112 219.779 9.76562 219.766 9.6875C219.753 9.60286 219.74 9.53125 219.727 9.47266C219.681 9.27083 219.639 9.0625 219.6 8.84766C219.561 8.6263 219.502 8.42122 219.424 8.23242C219.346 8.04362 219.238 7.88086 219.102 7.74414C218.965 7.60091 218.776 7.50326 218.535 7.45117H215.215C215.137 7.46419 215.068 7.48047 215.01 7.5C214.958 7.51302 214.932 7.58789 214.932 7.72461V18.0957C214.932 18.291 214.98 18.4668 215.078 18.623C215.176 18.7728 215.306 18.9062 215.469 19.0234C215.638 19.1406 215.833 19.235 216.055 19.3066C216.283 19.3783 216.523 19.4271 216.777 19.4531C216.849 19.4596 216.94 19.4629 217.051 19.4629C217.161 19.4629 217.256 19.4629 217.334 19.4629C217.367 19.4629 217.386 19.4727 217.393 19.4922C217.406 19.5117 217.412 19.528 217.412 19.541V19.9219C217.412 19.9349 217.406 19.9512 217.393 19.9707C217.386 19.9902 217.367 20 217.334 20H209.746C209.714 20 209.691 19.9902 209.678 19.9707C209.671 19.9512 209.668 19.9349 209.668 19.9219V19.541C209.668 19.528 209.671 19.5117 209.678 19.4922C209.691 19.4727 209.714 19.4629 209.746 19.4629C209.818 19.4629 209.909 19.4629 210.02 19.4629C210.137 19.4629 210.231 19.4596 210.303 19.4531C210.557 19.4271 210.794 19.3783 211.016 19.3066C211.243 19.235 211.439 19.1406 211.602 19.0234C211.771 18.9062 211.904 18.7728 212.002 18.623C212.1 18.4668 212.148 18.291 212.148 18.0957V7.72461ZM219.072 19.541C219.072 19.4889 219.098 19.4629 219.15 19.4629C219.274 19.4564 219.417 19.4401 219.58 19.4141C219.749 19.3815 219.919 19.3197 220.088 19.2285C220.264 19.1309 220.433 18.9909 220.596 18.8086C220.758 18.6198 220.895 18.3626 221.006 18.0371L224.932 6.65039C224.932 6.6569 224.932 6.65365 224.932 6.64062C224.938 6.6276 224.941 6.61458 224.941 6.60156C224.941 6.55599 224.922 6.50065 224.883 6.43555C224.85 6.36393 224.834 6.31185 224.834 6.2793C224.834 6.24674 224.847 6.23047 224.873 6.23047H227.705C227.718 6.23698 227.734 6.24349 227.754 6.25C227.78 6.25651 227.799 6.27604 227.812 6.30859L231.943 17.9004C232.008 18.0827 232.07 18.2389 232.129 18.3691C232.188 18.4993 232.256 18.6165 232.334 18.7207C232.419 18.8184 232.523 18.9095 232.646 18.9941C232.77 19.0723 232.93 19.1536 233.125 19.2383C233.216 19.2839 233.34 19.3327 233.496 19.3848C233.652 19.4368 233.802 19.4629 233.945 19.4629C233.978 19.4629 233.997 19.4727 234.004 19.4922C234.017 19.5117 234.023 19.5312 234.023 19.5508V19.9219C234.023 19.9349 234.017 19.9512 234.004 19.9707C233.997 19.9902 233.978 20 233.945 20H227.09C227.057 20 227.035 19.9902 227.021 19.9707C227.015 19.9512 227.012 19.9349 227.012 19.9219V19.541C227.012 19.528 227.015 19.5117 227.021 19.4922C227.035 19.4727 227.057 19.4629 227.09 19.4629C227.116 19.4629 227.142 19.4629 227.168 19.4629C227.194 19.4564 227.214 19.4531 227.227 19.4531C227.298 19.4466 227.399 19.4401 227.529 19.4336C227.666 19.4271 227.812 19.4173 227.969 19.4043C228.125 19.3848 228.281 19.3587 228.438 19.3262C228.6 19.2871 228.747 19.235 228.877 19.1699C229.007 19.0983 229.115 19.0072 229.199 18.8965C229.284 18.7858 229.326 18.6491 229.326 18.4863C229.326 18.4473 229.32 18.4017 229.307 18.3496L228.027 14.8242C228.021 14.8112 228.008 14.7819 227.988 14.7363C227.975 14.6908 227.949 14.6452 227.91 14.5996C227.878 14.5475 227.832 14.502 227.773 14.4629C227.721 14.4238 227.656 14.4043 227.578 14.4043H224.053C223.968 14.4043 223.896 14.4238 223.838 14.4629C223.779 14.502 223.73 14.5443 223.691 14.5898C223.652 14.6354 223.62 14.681 223.594 14.7266C223.574 14.7721 223.564 14.7982 223.564 14.8047C223.356 15.4167 223.18 15.9342 223.037 16.3574C222.894 16.7741 222.773 17.1191 222.676 17.3926C222.585 17.666 222.513 17.8776 222.461 18.0273C222.409 18.1771 222.37 18.2878 222.344 18.3594C222.324 18.4245 222.311 18.4668 222.305 18.4863C222.305 18.4993 222.305 18.5059 222.305 18.5059C222.305 18.5254 222.308 18.5482 222.314 18.5742C222.321 18.5938 222.327 18.6133 222.334 18.6328C222.386 18.7956 222.48 18.9323 222.617 19.043C222.76 19.1471 222.923 19.2318 223.105 19.2969C223.288 19.3555 223.473 19.3978 223.662 19.4238C223.857 19.4499 224.03 19.4629 224.18 19.4629H224.434C224.466 19.4629 224.486 19.4727 224.492 19.4922C224.505 19.5117 224.512 19.528 224.512 19.541V19.9219C224.512 19.9349 224.505 19.9512 224.492 19.9707C224.486 19.9902 224.466 20 224.434 20H219.15C219.098 20 219.072 19.974 219.072 19.9219V19.541ZM224.189 12.998C224.176 13.0306 224.167 13.0632 224.16 13.0957C224.154 13.1283 224.15 13.1608 224.15 13.1934C224.15 13.2324 224.16 13.265 224.18 13.291C224.199 13.3105 224.238 13.3203 224.297 13.3203H227.227C227.298 13.3203 227.344 13.3073 227.363 13.2812C227.389 13.2487 227.402 13.2129 227.402 13.1738C227.402 13.1413 227.399 13.112 227.393 13.0859C227.386 13.0599 227.376 13.0306 227.363 12.998L226.064 9.43359C226.032 9.34245 225.983 9.27734 225.918 9.23828C225.853 9.19271 225.794 9.16992 225.742 9.16992C225.69 9.16992 225.632 9.19596 225.566 9.24805C225.501 9.29362 225.452 9.35872 225.42 9.44336L224.189 12.998ZM244.805 20.2637C244.648 20.2637 244.548 20.1921 244.502 20.0488L242.334 14.8047L240.146 19.9219C240.075 20.0781 240 20.1725 239.922 20.2051C239.844 20.2441 239.73 20.2637 239.58 20.2637H238.164C238.086 20.2637 238.024 20.2441 237.979 20.2051C237.933 20.1725 237.894 20.1172 237.861 20.0391L232.803 7.87109C232.731 7.70182 232.627 7.56185 232.49 7.45117C232.354 7.33398 232.207 7.24284 232.051 7.17773C231.901 7.10612 231.755 7.05404 231.611 7.02148C231.475 6.98242 231.367 6.95638 231.289 6.94336C231.243 6.93685 231.188 6.92708 231.123 6.91406C231.058 6.89453 230.993 6.87826 230.928 6.86523C230.863 6.85221 230.804 6.84245 230.752 6.83594C230.706 6.82292 230.677 6.81641 230.664 6.81641C230.612 6.81641 230.586 6.79036 230.586 6.73828V6.30859C230.586 6.25651 230.612 6.23047 230.664 6.23047H237.109C237.148 6.23047 237.171 6.24023 237.178 6.25977C237.184 6.27279 237.188 6.28906 237.188 6.30859V6.73828C237.188 6.7513 237.181 6.76758 237.168 6.78711C237.161 6.80664 237.142 6.81641 237.109 6.81641H236.934C236.68 6.81641 236.481 6.8457 236.338 6.9043C236.195 6.96289 236.084 7.03776 236.006 7.12891C235.934 7.21354 235.889 7.30469 235.869 7.40234C235.856 7.5 235.85 7.58789 235.85 7.66602C235.85 7.80924 235.869 7.94271 235.908 8.06641C235.954 8.1901 235.993 8.32031 236.025 8.45703L239.531 16.9043C239.564 16.9694 239.626 17.002 239.717 17.002C239.756 17.002 239.785 16.9922 239.805 16.9727C239.824 16.9531 239.844 16.9271 239.863 16.8945L241.553 12.9102L239.414 7.77344C239.329 7.57161 239.199 7.39258 239.023 7.23633C238.848 7.08008 238.678 6.98242 238.516 6.94336C238.424 6.91081 238.32 6.88151 238.203 6.85547C238.086 6.82943 238.011 6.81641 237.979 6.81641C237.926 6.81641 237.9 6.79036 237.9 6.73828V6.30859C237.9 6.25651 237.926 6.23047 237.979 6.23047H247.256C247.295 6.23047 247.318 6.24023 247.324 6.25977C247.331 6.2793 247.334 6.29557 247.334 6.30859V6.73828C247.334 6.75781 247.331 6.77734 247.324 6.79688C247.318 6.8099 247.295 6.81641 247.256 6.81641H246.895C246.66 6.81641 246.452 6.84896 246.27 6.91406C246.094 6.97917 245.934 7.08008 245.791 7.2168C245.648 7.35352 245.514 7.52604 245.391 7.73438C245.273 7.94271 245.156 8.18685 245.039 8.4668L243.838 11.2598L246.172 16.875C246.204 16.9401 246.266 16.9727 246.357 16.9727C246.423 16.9727 246.471 16.9368 246.504 16.8652L250.4 7.73438C250.479 7.55208 250.518 7.39909 250.518 7.27539C250.518 7.10612 250.443 6.98893 250.293 6.92383C250.15 6.85221 249.88 6.81641 249.482 6.81641H248.877C248.825 6.81641 248.799 6.79036 248.799 6.73828V6.30859C248.799 6.29557 248.802 6.2793 248.809 6.25977C248.815 6.24023 248.838 6.23047 248.877 6.23047H253.516C253.555 6.23047 253.577 6.24023 253.584 6.25977C253.59 6.2793 253.594 6.29557 253.594 6.30859V6.73828C253.594 6.75781 253.59 6.77734 253.584 6.79688C253.577 6.8099 253.555 6.81641 253.516 6.81641H253.057C252.9 6.81641 252.764 6.84896 252.646 6.91406C252.529 6.97266 252.419 7.06706 252.314 7.19727C252.217 7.32096 252.119 7.47721 252.021 7.66602C251.93 7.85482 251.833 8.07617 251.729 8.33008L246.777 19.9219C246.706 20.0781 246.631 20.1725 246.553 20.2051C246.475 20.2441 246.361 20.2637 246.211 20.2637H244.805ZM243.838 7.53906C243.883 7.4349 243.91 7.35677 243.916 7.30469C243.929 7.2526 243.936 7.19401 243.936 7.12891C243.936 6.92057 243.714 6.81641 243.271 6.81641C243.089 6.81641 242.939 6.83919 242.822 6.88477C242.705 6.92383 242.611 6.97591 242.539 7.04102C242.474 7.09961 242.428 7.16797 242.402 7.24609C242.376 7.32422 242.363 7.39909 242.363 7.4707C242.363 7.54232 242.373 7.61719 242.393 7.69531C242.412 7.77344 242.445 7.88086 242.49 8.01758C242.542 8.14779 242.611 8.32031 242.695 8.53516C242.786 8.75 242.904 9.02995 243.047 9.375L243.838 7.53906ZM250.674 19.541C250.674 19.4889 250.7 19.4629 250.752 19.4629C250.876 19.4564 251.019 19.4401 251.182 19.4141C251.351 19.3815 251.52 19.3197 251.689 19.2285C251.865 19.1309 252.035 18.9909 252.197 18.8086C252.36 18.6198 252.497 18.3626 252.607 18.0371L256.533 6.65039C256.533 6.6569 256.533 6.65365 256.533 6.64062C256.54 6.6276 256.543 6.61458 256.543 6.60156C256.543 6.55599 256.523 6.50065 256.484 6.43555C256.452 6.36393 256.436 6.31185 256.436 6.2793C256.436 6.24674 256.449 6.23047 256.475 6.23047H259.307C259.32 6.23698 259.336 6.24349 259.355 6.25C259.382 6.25651 259.401 6.27604 259.414 6.30859L263.545 17.9004C263.61 18.0827 263.672 18.2389 263.73 18.3691C263.789 18.4993 263.857 18.6165 263.936 18.7207C264.02 18.8184 264.124 18.9095 264.248 18.9941C264.372 19.0723 264.531 19.1536 264.727 19.2383C264.818 19.2839 264.941 19.3327 265.098 19.3848C265.254 19.4368 265.404 19.4629 265.547 19.4629C265.579 19.4629 265.599 19.4727 265.605 19.4922C265.618 19.5117 265.625 19.5312 265.625 19.5508V19.9219C265.625 19.9349 265.618 19.9512 265.605 19.9707C265.599 19.9902 265.579 20 265.547 20H258.691C258.659 20 258.636 19.9902 258.623 19.9707C258.617 19.9512 258.613 19.9349 258.613 19.9219V19.541C258.613 19.528 258.617 19.5117 258.623 19.4922C258.636 19.4727 258.659 19.4629 258.691 19.4629C258.717 19.4629 258.743 19.4629 258.77 19.4629C258.796 19.4564 258.815 19.4531 258.828 19.4531C258.9 19.4466 259.001 19.4401 259.131 19.4336C259.268 19.4271 259.414 19.4173 259.57 19.4043C259.727 19.3848 259.883 19.3587 260.039 19.3262C260.202 19.2871 260.348 19.235 260.479 19.1699C260.609 19.0983 260.716 19.0072 260.801 18.8965C260.885 18.7858 260.928 18.6491 260.928 18.4863C260.928 18.4473 260.921 18.4017 260.908 18.3496L259.629 14.8242C259.622 14.8112 259.609 14.7819 259.59 14.7363C259.577 14.6908 259.551 14.6452 259.512 14.5996C259.479 14.5475 259.434 14.502 259.375 14.4629C259.323 14.4238 259.258 14.4043 259.18 14.4043H255.654C255.57 14.4043 255.498 14.4238 255.439 14.4629C255.381 14.502 255.332 14.5443 255.293 14.5898C255.254 14.6354 255.221 14.681 255.195 14.7266C255.176 14.7721 255.166 14.7982 255.166 14.8047C254.958 15.4167 254.782 15.9342 254.639 16.3574C254.495 16.7741 254.375 17.1191 254.277 17.3926C254.186 17.666 254.115 17.8776 254.062 18.0273C254.01 18.1771 253.971 18.2878 253.945 18.3594C253.926 18.4245 253.913 18.4668 253.906 18.4863C253.906 18.4993 253.906 18.5059 253.906 18.5059C253.906 18.5254 253.91 18.5482 253.916 18.5742C253.923 18.5938 253.929 18.6133 253.936 18.6328C253.988 18.7956 254.082 18.9323 254.219 19.043C254.362 19.1471 254.525 19.2318 254.707 19.2969C254.889 19.3555 255.075 19.3978 255.264 19.4238C255.459 19.4499 255.632 19.4629 255.781 19.4629H256.035C256.068 19.4629 256.087 19.4727 256.094 19.4922C256.107 19.5117 256.113 19.528 256.113 19.541V19.9219C256.113 19.9349 256.107 19.9512 256.094 19.9707C256.087 19.9902 256.068 20 256.035 20H250.752C250.7 20 250.674 19.974 250.674 19.9219V19.541ZM255.791 12.998C255.778 13.0306 255.768 13.0632 255.762 13.0957C255.755 13.1283 255.752 13.1608 255.752 13.1934C255.752 13.2324 255.762 13.265 255.781 13.291C255.801 13.3105 255.84 13.3203 255.898 13.3203H258.828C258.9 13.3203 258.945 13.3073 258.965 13.2812C258.991 13.2487 259.004 13.2129 259.004 13.1738C259.004 13.1413 259.001 13.112 258.994 13.0859C258.988 13.0599 258.978 13.0306 258.965 12.998L257.666 9.43359C257.633 9.34245 257.585 9.27734 257.52 9.23828C257.454 9.19271 257.396 9.16992 257.344 9.16992C257.292 9.16992 257.233 9.19596 257.168 9.24805C257.103 9.29362 257.054 9.35872 257.021 9.44336L255.791 12.998ZM269.316 15.1758C269.316 15.1367 269.307 15.1042 269.287 15.0781L265.293 8.69141C265.182 8.51562 265.062 8.33984 264.932 8.16406C264.808 7.98177 264.668 7.8125 264.512 7.65625C264.362 7.49349 264.196 7.35352 264.014 7.23633C263.838 7.11263 263.646 7.02474 263.438 6.97266C263.405 6.96615 263.353 6.95638 263.281 6.94336C263.21 6.92383 263.135 6.90755 263.057 6.89453C262.979 6.88151 262.904 6.86849 262.832 6.85547C262.76 6.84245 262.708 6.83268 262.676 6.82617C262.611 6.81966 262.549 6.7806 262.49 6.70898C262.432 6.63086 262.402 6.5625 262.402 6.50391C262.402 6.49089 262.402 6.4681 262.402 6.43555C262.409 6.40299 262.415 6.3737 262.422 6.34766C262.435 6.3151 262.451 6.28906 262.471 6.26953C262.49 6.24349 262.516 6.23047 262.549 6.23047H269.18C269.251 6.23047 269.297 6.26302 269.316 6.32812C269.336 6.39323 269.346 6.45182 269.346 6.50391C269.346 6.56901 269.339 6.63737 269.326 6.70898C269.32 6.7806 269.284 6.81641 269.219 6.81641C269.043 6.82943 268.877 6.84245 268.721 6.85547C268.564 6.86849 268.431 6.90104 268.32 6.95312C268.21 6.9987 268.122 7.07031 268.057 7.16797C267.992 7.26562 267.959 7.40234 267.959 7.57812C267.959 7.73438 267.998 7.87435 268.076 7.99805L271.055 12.7832C271.126 12.8939 271.172 12.9622 271.191 12.9883C271.217 13.0143 271.257 13.0273 271.309 13.0273C271.354 13.0273 271.393 13.0013 271.426 12.9492C271.465 12.8971 271.51 12.8288 271.562 12.7441L273.916 8.75C274.007 8.60026 274.098 8.43424 274.189 8.25195C274.287 8.06966 274.336 7.88411 274.336 7.69531C274.336 7.51302 274.31 7.36979 274.258 7.26562C274.212 7.15495 274.141 7.07031 274.043 7.01172C273.945 6.95312 273.825 6.91081 273.682 6.88477C273.545 6.85872 273.385 6.83594 273.203 6.81641C273.132 6.8099 273.089 6.77083 273.076 6.69922C273.063 6.6276 273.057 6.5625 273.057 6.50391C273.057 6.45833 273.063 6.40299 273.076 6.33789C273.096 6.26628 273.145 6.23047 273.223 6.23047H278.135C278.187 6.23047 278.223 6.26953 278.242 6.34766C278.262 6.41927 278.271 6.47135 278.271 6.50391C278.271 6.56901 278.249 6.62435 278.203 6.66992C278.164 6.71549 278.112 6.75456 278.047 6.78711C277.988 6.81315 277.923 6.83594 277.852 6.85547C277.786 6.86849 277.725 6.88151 277.666 6.89453C277.34 6.96615 277.057 7.08659 276.816 7.25586C276.582 7.41862 276.351 7.6237 276.123 7.87109C276.09 7.90365 276.042 7.95573 275.977 8.02734C275.918 8.09896 275.885 8.14128 275.879 8.1543L272.1 14.6484V18.0957C272.1 18.4863 272.201 18.7891 272.402 19.0039C272.604 19.2188 272.962 19.3522 273.477 19.4043C273.548 19.4108 273.639 19.4141 273.75 19.4141C273.861 19.4141 273.955 19.4141 274.033 19.4141C274.066 19.4141 274.085 19.4238 274.092 19.4434C274.105 19.4629 274.111 19.4792 274.111 19.4922V19.9219C274.111 19.9349 274.105 19.9512 274.092 19.9707C274.085 19.9902 274.066 20 274.033 20H267.383C267.35 20 267.327 19.9902 267.314 19.9707C267.308 19.9512 267.305 19.9349 267.305 19.9219V19.4922C267.305 19.4792 267.308 19.4629 267.314 19.4434C267.327 19.4238 267.35 19.4141 267.383 19.4141C267.454 19.4141 267.546 19.4141 267.656 19.4141C267.773 19.4141 267.868 19.4108 267.939 19.4043C268.454 19.3522 268.812 19.2188 269.014 19.0039C269.215 18.7891 269.316 18.4863 269.316 18.0957V15.1758ZM279.18 19.7363C279.095 19.7363 279.043 19.668 279.023 19.5312C278.952 18.9193 278.896 18.444 278.857 18.1055C278.818 17.7669 278.789 17.513 278.77 17.3438C278.757 17.1745 278.747 17.0671 278.74 17.0215C278.74 16.9694 278.74 16.9336 278.74 16.9141C278.74 16.8424 278.773 16.7643 278.838 16.6797C278.903 16.5951 278.981 16.5527 279.072 16.5527C279.137 16.5527 279.206 16.5918 279.277 16.6699C279.355 16.748 279.427 16.8392 279.492 16.9434C279.564 17.0475 279.622 17.1517 279.668 17.2559C279.72 17.36 279.753 17.4349 279.766 17.4805C279.935 17.8385 280.117 18.1413 280.312 18.3887C280.514 18.6296 280.742 18.8249 280.996 18.9746C281.25 19.1178 281.536 19.222 281.855 19.2871C282.174 19.3522 282.539 19.3848 282.949 19.3848C283.646 19.3848 284.186 19.2188 284.57 18.8867C284.961 18.5547 285.156 18.0208 285.156 17.2852C285.156 16.862 285.062 16.4779 284.873 16.1328C284.691 15.7878 284.45 15.4688 284.15 15.1758C283.851 14.8763 283.509 14.5931 283.125 14.3262C282.741 14.0592 282.347 13.7891 281.943 13.5156C281.54 13.2422 281.146 12.959 280.762 12.666C280.378 12.3665 280.036 12.0378 279.736 11.6797C279.437 11.3216 279.193 10.9245 279.004 10.4883C278.822 10.0521 278.73 9.56055 278.73 9.01367C278.73 8.68164 278.789 8.3724 278.906 8.08594C279.03 7.79948 279.193 7.53906 279.395 7.30469C279.596 7.07031 279.831 6.86198 280.098 6.67969C280.371 6.49089 280.661 6.33464 280.967 6.21094C281.273 6.08073 281.582 5.98307 281.895 5.91797C282.214 5.85286 282.523 5.82031 282.822 5.82031C283.063 5.82031 283.304 5.8431 283.545 5.88867C283.792 5.92773 284.033 5.97656 284.268 6.03516C284.508 6.09375 284.749 6.15885 284.99 6.23047C285.231 6.29557 285.469 6.35742 285.703 6.41602L286.348 6.35742C286.406 6.35742 286.442 6.38346 286.455 6.43555C286.475 6.48112 286.488 6.52344 286.494 6.5625L286.777 8.85742C286.777 8.88997 286.735 8.91276 286.65 8.92578C286.566 8.9388 286.501 8.94531 286.455 8.94531C286.416 8.94531 286.357 8.94206 286.279 8.93555C286.201 8.92253 286.156 8.90951 286.143 8.89648C286.123 8.87695 286.097 8.83789 286.064 8.7793C286.038 8.71419 286.009 8.64583 285.977 8.57422C285.944 8.49609 285.908 8.41797 285.869 8.33984C285.837 8.26172 285.801 8.19336 285.762 8.13477C285.449 7.65299 285.049 7.29492 284.561 7.06055C284.072 6.81966 283.535 6.69922 282.949 6.69922C282.695 6.69922 282.458 6.72852 282.236 6.78711C282.015 6.8457 281.823 6.9401 281.66 7.07031C281.497 7.19401 281.367 7.35352 281.27 7.54883C281.178 7.74414 281.133 7.97852 281.133 8.25195C281.133 8.64909 281.224 9.01042 281.406 9.33594C281.595 9.65495 281.839 9.95768 282.139 10.2441C282.445 10.5241 282.79 10.7975 283.174 11.0645C283.564 11.3314 283.958 11.6048 284.355 11.8848C284.759 12.1582 285.153 12.4512 285.537 12.7637C285.928 13.0762 286.273 13.4212 286.572 13.7988C286.878 14.1764 287.122 14.5964 287.305 15.0586C287.493 15.5208 287.588 16.0417 287.588 16.6211C287.588 17.0052 287.52 17.3633 287.383 17.6953C287.253 18.0273 287.074 18.3301 286.846 18.6035C286.618 18.8704 286.351 19.1081 286.045 19.3164C285.739 19.5247 285.41 19.7005 285.059 19.8438C284.714 19.9805 284.355 20.0846 283.984 20.1562C283.62 20.2279 283.262 20.2637 282.91 20.2637C282.467 20.2637 282.08 20.2311 281.748 20.166C281.423 20.1009 281.139 20.0293 280.898 19.9512C280.664 19.8665 280.465 19.7917 280.303 19.7266C280.14 19.6615 280.003 19.6289 279.893 19.6289C279.854 19.6289 279.824 19.6322 279.805 19.6387L279.18 19.7363Z" fill="black"/>
</svg>
